Coordinates
version=1
nRows=78
nColumns=6
inDegrees=yes

Units are S.I. units (second, meters, Newtons, ...)
If the header above contains a line with 'inDegrees', this indicates whether rotational values are in degrees (yes) or radians (no).

endheader
time	foot_tx	hip_flexion_r	knee_angle_r	ankle_angle_r	lumbar
     31.40000000	      0.27814370	     27.63707036	    -22.08467286	      8.71900813	     -4.06990535
     31.41000000	      0.27829189	     26.58614006	    -20.99904786	      8.37400295	     -3.73405003
     31.42000000	      0.27845706	     25.55051368	    -19.92397103	      8.00838010	     -3.47531694
     31.43000000	      0.27862072	     24.54838430	    -18.87691151	      7.63761909	     -3.26108311
     31.44000000	      0.27876108	     23.59245411	    -17.87310317	      7.28011555	     -3.05102237
     31.45000000	      0.27886539	     22.68697929	    -16.92024986	      6.94866405	     -2.81611445
     31.46000000	      0.27893187	     21.83423227	    -16.01897292	      6.64762009	     -2.54145908
     31.47000000	      0.27896395	     21.02729749	    -15.16774873	      6.37713572	     -2.23197261
     31.48000000	      0.27896889	     20.26930258	    -14.36469924	      6.13448289	     -1.88818785
     31.49000000	      0.27895104	     19.56010045	    -13.60775579	      5.91675256	     -1.51529480
     31.50000000	      0.27891217	     18.90629591	    -12.89561365	      5.72095954	     -1.11238744
     31.51000000	      0.27885175	     18.30440388	    -12.22448532	      5.54356249	     -0.68826133
     31.52000000	      0.27876968	     17.74970824	    -11.58873804	      5.38014591	     -0.25169043
     31.53000000	      0.27867092	     17.22807274	    -10.98306340	      5.22817074	      0.18402337
     31.54000000	      0.27854993	     16.77402114	    -10.41004670	      5.08699880	      0.65612564
     31.55000000	      0.27841702	     16.26538548	     -9.85202251	      4.95434108	      1.03500731
     31.56000000	      0.27827072	     15.84488946	     -9.32975463	      4.83299839	      1.47454005
     31.57000000	      0.27811230	     15.39009818	     -8.83117781	      4.72341210	      1.83939258
     31.58000000	      0.27793618	     15.00612286	     -8.37109509	      4.62772959	      2.24294699
     31.59000000	      0.27775238	     14.63406362	     -7.93344244	      4.53974518	      2.62560212
     31.60000000	      0.27755114	     14.27393039	     -7.51075212	      4.45601782	      2.99173284
     31.61000000	      0.27732254	     13.92374923	     -7.08487824	      4.36671046	      3.34807164
     31.62000000	      0.27705814	     13.57917359	     -6.63592173	      4.26108847	      3.69963668
     31.63000000	      0.27675188	     13.23866438	     -6.16112078	      4.13823516	      4.04668134
     31.64000000	      0.27642940	     12.90253080	     -5.67502380	      4.00573321	      4.38514118
     31.65000000	      0.27610952	     12.57704601	     -5.20444074	      3.87789106	      4.71060693
     31.66000000	      0.27580635	     12.26623571	     -4.76396440	      3.76262890	      5.02303862
     31.67000000	      0.27550998	     11.96916732	     -4.36184868	      3.66579690	      5.31936920
     31.68000000	      0.27523332	     11.68685053	     -3.99433444	      3.58461955	      5.60379985
     31.69000000	      0.27497310	     11.41859898	     -3.65759604	      3.51710644	      5.87808127
     31.70000000	      0.27472101	     11.16354742	     -3.34847947	      3.46194489	      6.14259789
     31.71000000	      0.27447566	     10.92087165	     -3.06177636	      3.41610349	      6.39857115
     31.72000000	      0.27424674	     10.68806897	     -2.79112173	      3.37565426	      6.64786938
     31.73000000	      0.27403087	     10.46416900	     -2.53509171	      3.33992541	      6.88990832
     31.74000000	      0.27382971	     10.24810986	     -2.29209744	      3.30796568	      7.12469846
     31.75000000	      0.27364223	     10.03799273	     -2.06096427	      3.27944973	      7.35177431
     31.76000000	      0.27346862	      9.83396681	     -1.84348020	      3.25557537	      7.57129044
     31.77000000	      0.27330989	      9.63468250	     -1.63838267	      3.23575330	      7.78311506
     31.78000000	      0.27316600	      9.44030516	     -1.44709733	      3.22095643	      7.98745938
     31.79000000	      0.27303816	      9.25064912	     -1.27052445	      3.21174973	      8.18415222
     31.80000000	      0.27292802	      9.06631856	     -1.10865808	      3.20802032	      8.37399266
     31.81000000	      0.27283375	      8.88791827	     -0.96197122	      3.20998155	      8.55713941
     31.82000000	      0.27275567	      8.71646719	     -0.82951266	      3.21667019	      8.73394091
     31.83000000	      0.27269444	      8.55241098	     -0.71359347	      3.22888838	      8.90310585
     31.84000000	      0.27263870	      8.39587792	     -0.60693678	      3.24264932	      9.06539031
     31.85000000	      0.27258391	      8.24617802	     -0.50601065	      3.25580171	      9.22050768
     31.86000000	      0.27252440	      8.10246781	     -0.40585203	      3.26572319	      9.36923299
     31.87000000	      0.27245686	      7.96347281	     -0.30421427	      3.27163171	      9.51129259
     31.88000000	      0.27237788	      7.82890653	     -0.19972775	      3.27303684	      9.64792620
     31.89000000	      0.27228728	      7.69846223	     -0.09198674	      3.26989738	      9.77866899
     31.90000000	      0.27218476	      7.57148523	      0.01873269	      3.26258821	      9.90410901
     31.91000000	      0.27207007	      7.44844034	      0.12970212	      3.25288557	     10.02378587
     31.92000000	      0.27194658	      7.32810705	      0.24010047	      3.24156635	     10.13721953
     31.93000000	      0.27181472	      7.21174648	      0.34690341	      3.23071102	     10.24658836
     31.94000000	      0.27167739	      7.09844687	      0.45009527	      3.22106463	     10.35415066
     31.95000000	      0.27153465	      6.98559590	      0.55133798	      3.21313607	     10.46302846
     31.96000000	      0.27139223	      6.87102654	      0.65200976	      3.20755231	     10.57864893
     31.97000000	      0.27124923	      6.75049993	      0.75536100	      3.20523380	     10.70768273
     31.98000000	      0.27111555	      6.62102862	      0.86461958	      3.20666951	     10.85884405
     31.99000000	      0.27098815	      6.51654101	      0.97390854	      3.21575499	     11.07690798
     32.00000000	      0.27087917	      6.34770350	      1.10267327	      3.22763692	     11.27229400
     32.01000000	      0.27078398	      6.22438478	      1.22726581	      3.24802670	     11.55423377
     32.02000000	      0.27071264	      6.03280262	      1.36359433	      3.26910644	     11.77590041
     32.03000000	      0.27066060	      5.90416308	      1.47728921	      3.29485338	     12.04333422
     32.04000000	      0.27063622	      5.73825708	      1.57882518	      3.31874211	     12.22078683
     32.05000000	      0.27064043	      5.60452981	      1.64719369	      3.34526629	     12.36784338
     32.06000000	      0.27067426	      5.49900296	      1.68138278	      3.37443206	     12.47656649
     32.07000000	      0.27073098	      5.42156764	      1.68097892	      3.40809165	     12.55096013
     32.08000000	      0.27081617	      5.36739539	      1.65311015	      3.44399184	     12.59687451
     32.09000000	      0.27090493	      5.34160985	      1.58760936	      3.48961449	     12.61663593
     32.10000000	      0.27100299	      5.33375017	      1.50865009	      3.53504985	     12.62450344
     32.11000000	      0.27109964	      5.33823191	      1.42325271	      3.57950983	     12.62591020
     32.12000000	      0.27117806	      5.34359126	      1.35109827	      3.61631898	     12.62891443
     32.13000000	      0.27122895	      5.35649577	      1.31407023	      3.63524907	     12.66108191
     32.14000000	      0.27123799	      5.33157885	      1.32859294	      3.63115341	     12.68086750
     32.15000000	      0.27122114	      5.29343902	      1.38236164	      3.60900342	     12.71164001
     32.16000000	      0.27119404	      5.24471448	      1.45313549	      3.58075255	     12.74703371
     32.17000000	      0.27117009	      5.19173599	      1.52265543	      3.55503773	     12.78352604
